<svg width="231" height="40" viewBox="0 0 231 40" fill="none" xmlns="http://www.w3.org/2000/svg">
<path d="M6.39434 39.082H0.472336V0.0639988H6.39434V39.082ZM21.4251 8.8V3.382H31.5471V34H25.4991V8.8H21.4251ZM54.5877 39.082H48.6657V0.0639988H54.5877V39.082ZM72.1804 27.364C74.8684 25.124 77.0104 23.262 78.6064 21.778C80.2024 20.266 81.5324 18.698 82.5964 17.074C83.6604 15.45 84.1924 13.854 84.1924 12.286C84.1924 10.858 83.8564 9.738 83.1844 8.926C82.5124 8.114 81.4764 7.708 80.0764 7.708C78.6764 7.708 77.5984 8.184 76.8424 9.136C76.0864 10.06 75.6944 11.334 75.6664 12.958H69.9544C70.0664 9.598 71.0604 7.05 72.9364 5.314C74.8404 3.578 77.2484 2.71 80.1604 2.71C83.3524 2.71 85.8024 3.564 87.5104 5.272C89.2184 6.952 90.0724 9.178 90.0724 11.95C90.0724 14.134 89.4844 16.22 88.3084 18.208C87.1324 20.196 85.7884 21.932 84.2764 23.416C82.7644 24.872 80.7904 26.636 78.3544 28.708H90.7444V33.58H69.9964V29.212L72.1804 27.364ZM111.681 39.082H105.759V0.0639988H111.681V39.082ZM127.51 11.446C127.65 8.646 128.63 6.49 130.45 4.978C132.298 3.438 134.72 2.668 137.716 2.668C139.76 2.668 141.51 3.032 142.966 3.76C144.422 4.46 145.514 5.426 146.242 6.658C146.998 7.862 147.376 9.234 147.376 10.774C147.376 12.538 146.914 14.036 145.99 15.268C145.094 16.472 144.016 17.284 142.756 17.704V17.872C144.38 18.376 145.64 19.272 146.536 20.56C147.46 21.848 147.922 23.5 147.922 25.516C147.922 27.196 147.53 28.694 146.746 30.01C145.99 31.326 144.856 32.362 143.344 33.118C141.86 33.846 140.068 34.21 137.968 34.21C134.804 34.21 132.228 33.412 130.24 31.816C128.252 30.22 127.202 27.868 127.09 24.76H132.802C132.858 26.132 133.32 27.238 134.188 28.078C135.084 28.89 136.302 29.296 137.842 29.296C139.27 29.296 140.362 28.904 141.118 28.12C141.902 27.308 142.294 26.272 142.294 25.012C142.294 23.332 141.762 22.128 140.698 21.4C139.634 20.672 137.982 20.308 135.742 20.308H134.524V15.478H135.742C139.718 15.478 141.706 14.148 141.706 11.488C141.706 10.284 141.342 9.346 140.614 8.674C139.914 8.002 138.892 7.666 137.548 7.666C136.232 7.666 135.21 8.03 134.482 8.758C133.782 9.458 133.376 10.354 133.264 11.446H127.51ZM169.801 39.082H163.879V0.0639988H169.801V39.082ZM185.293 28.036V23.416L199.027 3.76H205.873V22.912H209.569V28.036H205.873V34H199.993V28.036H185.293ZM200.371 10.06L191.761 22.912H200.371V10.06ZM230.545 39.082H224.623V0.0639988H230.545V39.082Z" fill="#46196B"/>
</svg>
