<svg width="291" height="40" viewBox="0 0 291 40" fill="none" xmlns="http://www.w3.org/2000/svg">
<path d="M6.32988 39.082H0.407883V0.0639988H6.32988V39.082ZM22.0746 18.292C22.0746 13.448 22.9426 9.654 24.6786 6.91C26.4426 4.166 29.3546 2.794 33.4146 2.794C37.4746 2.794 40.3726 4.166 42.1086 6.91C43.8726 9.654 44.7546 13.448 44.7546 18.292C44.7546 23.164 43.8726 26.986 42.1086 29.758C40.3726 32.53 37.4746 33.916 33.4146 33.916C29.3546 33.916 26.4426 32.53 24.6786 29.758C22.9426 26.986 22.0746 23.164 22.0746 18.292ZM38.9586 18.292C38.9586 16.22 38.8186 14.484 38.5386 13.084C38.2866 11.656 37.7546 10.494 36.9426 9.598C36.1586 8.702 34.9826 8.254 33.4146 8.254C31.8466 8.254 30.6566 8.702 29.8446 9.598C29.0606 10.494 28.5286 11.656 28.2486 13.084C27.9966 14.484 27.8706 16.22 27.8706 18.292C27.8706 20.42 27.9966 22.212 28.2486 23.668C28.5006 25.096 29.0326 26.258 29.8446 27.154C30.6566 28.022 31.8466 28.456 33.4146 28.456C34.9826 28.456 36.1726 28.022 36.9846 27.154C37.7966 26.258 38.3286 25.096 38.5806 23.668C38.8326 22.212 38.9586 20.42 38.9586 18.292ZM66.4588 39.082H60.5368V0.0639988H66.4588V39.082ZM81.4895 8.8V3.382H91.6115V34H85.5635V8.8H81.4895ZM114.652 39.082H108.73V0.0639988H114.652V39.082ZM132.245 27.364C134.933 25.124 137.075 23.262 138.671 21.778C140.267 20.266 141.597 18.698 142.661 17.074C143.725 15.45 144.257 13.854 144.257 12.286C144.257 10.858 143.921 9.738 143.249 8.926C142.577 8.114 141.541 7.708 140.141 7.708C138.741 7.708 137.663 8.184 136.907 9.136C136.151 10.06 135.759 11.334 135.731 12.958H130.019C130.131 9.598 131.125 7.05 133.001 5.314C134.905 3.578 137.313 2.71 140.225 2.71C143.417 2.71 145.867 3.564 147.575 5.272C149.283 6.952 150.137 9.178 150.137 11.95C150.137 14.134 149.549 16.22 148.373 18.208C147.197 20.196 145.853 21.932 144.341 23.416C142.829 24.872 140.855 26.636 138.419 28.708H150.809V33.58H130.061V29.212L132.245 27.364ZM171.746 39.082H165.824V0.0639988H171.746V39.082ZM187.575 11.446C187.715 8.646 188.695 6.49 190.515 4.978C192.363 3.438 194.785 2.668 197.781 2.668C199.825 2.668 201.575 3.032 203.031 3.76C204.487 4.46 205.579 5.426 206.307 6.658C207.063 7.862 207.441 9.234 207.441 10.774C207.441 12.538 206.979 14.036 206.055 15.268C205.159 16.472 204.081 17.284 202.821 17.704V17.872C204.445 18.376 205.705 19.272 206.601 20.56C207.525 21.848 207.987 23.5 207.987 25.516C207.987 27.196 207.595 28.694 206.811 30.01C206.055 31.326 204.921 32.362 203.409 33.118C201.925 33.846 200.133 34.21 198.033 34.21C194.869 34.21 192.293 33.412 190.305 31.816C188.317 30.22 187.267 27.868 187.155 24.76H192.867C192.923 26.132 193.385 27.238 194.253 28.078C195.149 28.89 196.367 29.296 197.907 29.296C199.335 29.296 200.427 28.904 201.183 28.12C201.967 27.308 202.359 26.272 202.359 25.012C202.359 23.332 201.827 22.128 200.763 21.4C199.699 20.672 198.047 20.308 195.807 20.308H194.589V15.478H195.807C199.783 15.478 201.771 14.148 201.771 11.488C201.771 10.284 201.407 9.346 200.679 8.674C199.979 8.002 198.957 7.666 197.613 7.666C196.297 7.666 195.275 8.03 194.547 8.758C193.847 9.458 193.441 10.354 193.329 11.446H187.575ZM229.865 39.082H223.943V0.0639988H229.865V39.082ZM245.358 28.036V23.416L259.092 3.76H265.938V22.912H269.634V28.036H265.938V34H260.058V28.036H245.358ZM260.436 10.06L251.826 22.912H260.436V10.06ZM290.609 39.082H284.687V0.0639988H290.609V39.082Z" fill="#46196B"/>
</svg>
