<svg width="282" height="49" viewBox="0 0 282 49" fill="none" xmlns="http://www.w3.org/2000/svg">
<path d="M42.6667 0H5.33333C2.4 0 0 2.4 0 5.33333V42.6667C0 45.6 2.4 48 5.33333 48H42.6667C45.6 48 48 45.6 48 42.6667V5.33333C48 2.4 45.6 0 42.6667 0ZM29.3333 37.3333H24V16H18.6667V10.6667H29.3333V37.3333Z" fill="#46196B"/>
<path d="M120.667 1H83.3333C80.4 1 78 3.4 78 6.33333V43.6667C78 46.6 80.4 49 83.3333 49H120.667C123.6 49 126 46.6 126 43.6667V6.33333C126 3.4 123.6 1 120.667 1ZM110 22.3333C110 25.2933 107.6 27.6667 104.667 27.6667H99.3333V33H110V38.3333H94V27.6667C94 24.7067 96.4 22.3333 99.3333 22.3333H104.667V17H94V11.6667H104.667C107.6 11.6667 110 14.04 110 17V22.3333Z" fill="#46196B"/>
<path d="M198.667 1H161.333C158.4 1 156 3.4 156 6.33333V43.6667C156 46.6 158.4 49 161.333 49H198.667C201.6 49 204 46.6 204 43.6667V6.33333C204 3.4 201.6 1 198.667 1ZM188 21C188 23.2133 186.213 25 184 25C186.213 25 188 26.7867 188 29V33C188 35.96 185.6 38.3333 182.667 38.3333H172V33H182.667V27.6667H177.333V22.3333H182.667V17H172V11.6667H182.667C185.6 11.6667 188 14.04 188 17V21Z" fill="#46196B"/>
<path d="M276.667 1H239.333C236.4 1 234 3.4 234 6.33333V43.6667C234 46.6 236.4 49 239.333 49H276.667C279.6 49 282 46.6 282 43.6667V6.33333C282 3.4 279.6 1 276.667 1ZM266 38.3333H260.667V27.6667H250V11.6667H255.333V22.3333H260.667V11.6667H266V38.3333Z" fill="#46196B"/>
</svg>
