<svg width="40" height="40" viewBox="0 0 40 40" fill="none" xmlns="http://www.w3.org/2000/svg">
<path d="M26.1996 34.7401L28.1996 38.2201C26.2796 39.1001 24.1796 39.6801 21.9996 39.9001V35.8601C23.4796 35.6801 24.8796 35.3001 26.1996 34.7401ZM4.13961 22.0001H0.0996094C0.319609 24.2001 0.89961 26.2801 1.77961 28.2001L5.25961 26.2001C4.69961 24.8801 4.31961 23.4801 4.13961 22.0001ZM26.1996 5.2601L28.1996 1.7801C26.2796 0.900098 24.1996 0.320098 21.9996 0.100098V4.1401C23.4796 4.3201 24.8796 4.7001 26.1996 5.2601ZM35.8596 18.0001H39.8996C39.6796 15.8001 39.0996 13.7201 38.2196 11.8001L34.7396 13.8001C35.2996 15.1201 35.6796 16.5201 35.8596 18.0001ZM13.7996 34.7401L11.7996 38.2201C13.7196 39.1001 15.8196 39.6801 17.9996 39.9001V35.8601C16.5196 35.6801 15.1196 35.3001 13.7996 34.7401ZM17.9996 4.1401V0.100098C15.7996 0.320098 13.7196 0.900098 11.7996 1.7801L13.7996 5.2601C15.1196 4.7001 16.5196 4.3201 17.9996 4.1401ZM32.7196 10.3401L36.1996 8.3201C34.9396 6.5801 33.3996 5.0401 31.6596 3.7801L29.6396 7.2601C30.8196 8.1601 31.8396 9.1801 32.7196 10.3401ZM5.25961 13.8001L1.77961 11.8001C0.89961 13.7201 0.319609 15.8001 0.0996094 18.0001H4.13961C4.31961 16.5201 4.69961 15.1201 5.25961 13.8001ZM35.8596 22.0001C35.6796 23.4801 35.2996 24.8801 34.7396 26.2001L38.2196 28.2001C39.0996 26.2801 39.6796 24.1801 39.8996 22.0001H35.8596ZM29.6596 32.7201L31.6796 36.2001C33.4196 34.9401 34.9596 33.4001 36.2196 31.6601L32.7396 29.6401C31.8396 30.8201 30.8196 31.8401 29.6596 32.7201ZM10.3396 7.2801L8.33961 3.7801C6.57961 5.0601 5.05961 6.5801 3.79961 8.3401L7.27961 10.3601C8.15961 9.1801 9.17961 8.1601 10.3396 7.2801ZM7.27961 29.6601L3.79961 31.6601C5.05961 33.4001 6.59961 34.9401 8.33961 36.2001L10.3596 32.7201C9.17961 31.8401 8.15961 30.8201 7.27961 29.6601ZM21.9996 10.0001H17.9996V20.8201L26.5796 29.4001L29.3996 26.5801L21.9996 19.1801V10.0001Z" fill="#46196B"/>
</svg>
